HIERARCHY
ROOT Hips
{
	OFFSET	0.00	0.00	0.00
	CHANNELS 6 Xposition Yposition Zposition Zrotation Xrotation Yrotation
	JOINT LeftUpLeg
	{
		OFFSET	 0.126116	-0.014019	-0.065224
		CHANNELS 3 Zrotation Xrotation Yrotation
		JOINT LeftLeg
		{
			OFFSET	 0.000000	 0.000000	 0.569914
			CHANNELS 3 Zrotation Xrotation Yrotation
			JOINT LeftFoot
			{
				OFFSET	 0.000000	 0.000000	 0.544423
				CHANNELS 3 Zrotation Xrotation Yrotation
				JOINT LeftToeBase
				{
					OFFSET	 0.000000	 0.000000	 0.207117
					CHANNELS 3 Zrotation Xrotation Yrotation
					End Site
					{
						OFFSET	 0.000000	 0.000000	 0.207117
					}
				}
			}
		}
	}
	JOINT RightUpLeg
	{
		OFFSET	-0.124023	-0.008373	-0.065224
		CHANNELS 3 Zrotation Xrotation Yrotation
		JOINT RightLeg
		{
			OFFSET	 0.000000	 0.000000	 0.570047
			CHANNELS 3 Zrotation Xrotation Yrotation
			JOINT RightFoot
			{
				OFFSET	 0.000000	 0.000000	 0.544354
				CHANNELS 3 Zrotation Xrotation Yrotation
				JOINT RightToeBase
				{
					OFFSET	 0.000000	 0.000000	 0.207540
					CHANNELS 3 Zrotation Xrotation Yrotation
					End Site
					{
						OFFSET	 0.000000	 0.000000	 0.207540
					}
				}
			}
		}
	}
	JOINT Spine
	{
		OFFSET	 0.000184	-0.007763	 0.117403
		CHANNELS 3 Zrotation Xrotation Yrotation
		JOINT Spine1
		{
			OFFSET	 0.000000	 0.000000	 0.137269
			CHANNELS 3 Zrotation Xrotation Yrotation
			JOINT Spine2
			{
				OFFSET	 0.000000	 0.000000	 0.156879
				CHANNELS 3 Zrotation Xrotation Yrotation
				JOINT LeftShoulder
				{
					OFFSET	 0.080501	-0.002496	 0.160144
					CHANNELS 3 Zrotation Xrotation Yrotation
					JOINT LeftArm
					{
						OFFSET	 0.000000	 0.000000	 0.164363
						CHANNELS 3 Zrotation Xrotation Yrotation
						JOINT LeftForeArm
						{
							OFFSET	 0.000000	 0.000000	 0.364576
							CHANNELS 3 Zrotation Xrotation Yrotation
							JOINT LeftHand
							{
								OFFSET	 0.000000	 0.000000	 0.360812
								CHANNELS 3 Zrotation Xrotation Yrotation
								JOINT LeftHandIndex1
								{
									OFFSET	 0.000000	 0.000000	 0.086006
									CHANNELS 3 Zrotation Xrotation Yrotation
									JOINT LeftHandIndex2
									{
										OFFSET	 0.000000	 0.000000	 0.047236
										CHANNELS 3 Zrotation Xrotation Yrotation
										JOINT LeftHandIndex3
										{
											OFFSET	-0.004284	-0.000551	 0.038166
											CHANNELS 3 Zrotation Xrotation Yrotation
											End Site
											{
												OFFSET	-0.004284	-0.000551	 0.038166
											}
										}
									}
								}
							}
						}
					}
				}
				JOINT Neck
				{
					OFFSET	 0.000000	 0.000000	 0.176489
					CHANNELS 3 Zrotation Xrotation Yrotation
					JOINT Head
					{
						OFFSET	 0.000000	-0.001747	 0.077940
						CHANNELS 3 Zrotation Xrotation Yrotation
						End Site
						{
							OFFSET	 0.000000	-0.001747	 0.077940
						}
					}
				}
				JOINT RightShoulder
				{
					OFFSET	-0.080363	 0.000306	 0.159706
					CHANNELS 3 Zrotation Xrotation Yrotation
					JOINT RightArm
					{
						OFFSET	 0.000000	 0.000000	 0.164196
						CHANNELS 3 Zrotation Xrotation Yrotation
						JOINT RightForeArm
						{
							OFFSET	 0.000000	 0.000000	 0.365611
							CHANNELS 3 Zrotation Xrotation Yrotation
							JOINT RightHand
							{
								OFFSET	 0.000000	 0.000000	 0.360648
								CHANNELS 3 Zrotation Xrotation Yrotation
								JOINT RightHandIndex1
								{
									OFFSET	 0.000000	 0.000000	 0.069977
									CHANNELS 3 Zrotation Xrotation Yrotation
									JOINT RightHandIndex2
									{
										OFFSET	 0.000000	 0.000000	 0.052305
										CHANNELS 3 Zrotation Xrotation Yrotation
										JOINT RightHandIndex3
										{
											OFFSET	 0.009002	-0.000782	 0.042196
											CHANNELS 3 Zrotation Xrotation Yrotation
											End Site
											{
												OFFSET	 0.009002	-0.000782	 0.042196
											}
										}
									}
								}
							}
						}
					}
				}
			}
		}
	}
}
MOTION
Frames:    7
Frame Time: 0.03333334
 0.000192	 0.017304	 1.304782	-0.001942	 0.004732	 0.127929	 9.680885	-2.185981	 176.935800	 1.476732	-11.675100	-0.681119	-6.798645	 64.107960	 0.945327	-2.385833	 28.452760	 0.000004	-9.815398	-2.313867	-177.189000	-1.464993	-11.531410	 0.660142	 6.503674	 63.920590	-0.781053	 2.384658	 28.388730	 0.000004	 17.023150	 2.720746	 0.245775	-1.593723	 3.655392	-0.593787	 4.829117	-4.569661	 1.040279	-91.776070	 78.527450	 179.999900	 41.490860	 32.099500	-55.013170	-25.206450	 3.357485	-10.238060	-27.121190	-23.194030	-3.267921	-2.635965	 4.993658	 6.788941	-5.165319	 0.784187	 3.516649	-5.225038	 0.466231	 0.424329	-0.000002	-3.783157	-0.089647	 4.697091	 4.836476	-0.198488	 89.782080	 78.203900	-180.000000	-1.743282	 11.816290	 114.420200	-17.286220	 3.046049	 10.355780	-2.550388	-23.022750	-8.022122	 6.112037	 4.509576	-0.364401	 4.968462	 1.518543	-9.347576	 5.168945	 0.703820	 2.021906
 0.000191	 0.017198	 1.306346	-0.001945	 0.004727	 0.127917	 10.045960	-2.208603	 176.913300	 1.476733	-11.674980	-0.681112	-6.770580	 63.842330	 0.927644	-2.385833	 28.452760	 0.000004	-10.180480	-2.334846	-177.167900	-1.464989	-11.531410	 0.660142	 6.475579	 63.656320	-0.762570	 2.384658	 28.388730	 0.000004	 20.419450	 2.720747	 0.245788	-1.593720	 3.655385	-0.593768	 4.829104	-4.569651	 1.040278	-91.776120	 78.527470	 180.000000	 41.503090	 32.104270	-55.031360	-22.505220	 2.441042	-8.763599	-24.060650	-29.535940	-1.397766	-2.635965	 4.993658	 6.788941	-5.165319	 0.784187	 3.516649	-5.225038	 0.466231	 0.424329	-0.000002	-3.783157	-0.089647	 4.697118	 4.836493	-0.198490	 89.782110	 78.203870	 180.000000	-1.829316	 11.953470	 114.363900	-20.098460	 2.122028	 8.864642	-6.970759	-28.770140	-10.525550	 6.112037	 4.509576	-0.364401	 4.968462	 1.518543	-9.347576	 5.168945	 0.703820	 2.021906
 0.000221	 0.017074	 1.307577	-0.001941	 0.004729	 0.127927	 10.371970	-2.229047	 176.893400	 1.476732	-11.675080	-0.681118	-6.745495	 63.605220	 0.911948	-2.385833	 28.452760	 0.000004	-10.506530	-2.353700	-177.149100	-1.464994	-11.531400	 0.660141	 6.450448	 63.420360	-0.746140	 2.384658	 28.388730	 0.000004	 22.997710	 2.720747	 0.245777	-1.593721	 3.655385	-0.593782	 4.829101	-4.569649	 1.040281	-91.776080	 78.527430	 179.999900	 41.548290	 32.138580	-55.113770	-19.891360	 1.701936	-7.293600	-20.994420	-34.368270	 0.861736	-2.635965	 4.993658	 6.788941	-5.165319	 0.784187	 3.516649	-5.225038	 0.466231	 0.424329	-0.000002	-3.783157	-0.089647	 4.697119	 4.836491	-0.198490	 89.782160	 78.203850	 179.999900	-1.762465	 12.129840	 114.300700	-22.820710	 1.379188	 7.381927	-11.136510	-33.000660	-13.360280	 6.112037	 4.509576	-0.364401	 4.968462	 1.518543	-9.347576	 5.168945	 0.703820	 2.021906
 0.000258	 0.016940	 1.308926	-0.001945	 0.004727	 0.127921	 10.726530	-2.251347	 176.871900	 1.476730	-11.675110	-0.681120	-6.718149	 63.347360	 0.894922	-2.385833	 28.452760	 0.000004	-10.861100	-2.374349	-177.128800	-1.464986	-11.531470	 0.660146	 6.423103	 63.163790	-0.728371	 2.384658	 28.388730	 0.000004	 25.224020	 2.720750	 0.245784	-1.593721	 3.655386	-0.593761	 4.829105	-4.569654	 1.040274	-91.776180	 78.527430	 180.000000	 41.626660	 32.206830	-55.259850	-16.849190	 1.029448	-5.550527	-17.387180	-38.314620	 3.734299	-2.635965	 4.993658	 6.788941	-5.165319	 0.784187	 3.516649	-5.225038	 0.466231	 0.424329	-0.000002	-3.783157	-0.089647	 4.697118	 4.836493	-0.198490	 89.782140	 78.203900	 179.999900	-2.190766	 12.265320	 114.140900	-25.985800	 0.700167	 5.619590	-15.743850	-36.205420	-16.698550	 6.112037	 4.509576	-0.364401	 4.968462	 1.518543	-9.347576	 5.168945	 0.703820	 2.021906
 0.000263	 0.016852	 1.310640	-0.001942	 0.004732	 0.127929	 11.087920	-2.274206	 176.850100	 1.476733	-11.675100	-0.681120	-6.690178	 63.084550	 0.877618	-2.385833	 28.452760	 0.000004	-11.222490	-2.395513	-177.108200	-1.464995	-11.531500	 0.660146	 6.395223	 62.902320	-0.710345	 2.384658	 28.388730	 0.000004	 26.783290	 2.720746	 0.245774	-1.593724	 3.655397	-0.593765	 4.829113	-4.569665	 1.040269	-91.776020	 78.527450	 179.999900	 41.730990	 32.296520	-55.455000	-13.565990	 0.521574	-3.633092	-13.709280	-40.587190	 6.656248	-2.635965	 4.993658	 6.788941	-5.165319	 0.784187	 3.516649	-5.225038	 0.466231	 0.424329	-0.000002	-3.783157	-0.089647	 4.697092	 4.836476	-0.198488	 89.782010	 78.203890	-179.999900	-4.200267	 12.165240	 113.772300	-29.393020	 0.188140	 3.683335	-20.326750	-37.608700	-19.689020	 6.112037	 4.509576	-0.364401	 4.968462	 1.518543	-9.347576	 5.168945	 0.703820	 2.021906
 0.000245	 0.016811	 1.312369	-0.001944	 0.004725	 0.127919	 11.400600	-2.294084	 176.831400	 1.476734	-11.675080	-0.681118	-6.665931	 62.857180	 0.862685	-2.385833	 28.452760	 0.000004	-11.535160	-2.413971	-177.090500	-1.464990	-11.531640	 0.660155	 6.371066	 62.676190	-0.694839	 2.384658	 28.388730	 0.000004	 27.490350	 2.720752	 0.245786	-1.593723	 3.655397	-0.593772	 4.829113	-4.569664	 1.040272	-91.776120	 78.527470	 180.000000	 41.837590	 32.401820	-55.663160	-10.606960	 0.257017	-1.885653	-10.873860	-40.969080	 8.699546	-2.635965	 4.993658	 6.788941	-5.165319	 0.784187	 3.516649	-5.225038	 0.466231	 0.424329	-0.000002	-3.783157	-0.089647	 4.697110	 4.836499	-0.198490	 89.782140	 78.203850	 180.000000	-7.231113	 12.165730	 113.283800	-32.170810	-0.077060	 1.922228	-23.781620	-37.357190	-21.436010	 6.112037	 4.509576	-0.364401	 4.968462	 1.518543	-9.347576	 5.168945	 0.703820	 2.021906
 0.000226	 0.016762	 1.314359	-0.001945	 0.004727	 0.127917	 11.758150	-2.316964	 176.810100	 1.476732	-11.675100	-0.681120	-6.638144	 62.597190	 0.845673	-2.385833	 28.452760	 0.000004	-11.892720	-2.435066	-177.070400	-1.464988	-11.531510	 0.660147	 6.343357	 62.417440	-0.677117	 2.384658	 28.388730	 0.000004	 27.510540	 2.720749	 0.245788	-1.593723	 3.655391	-0.593755	 4.829118	-4.569663	 1.040264	-91.776120	 78.527450	 179.999900	 41.981540	 32.539810	-55.939690	-7.132215	 0.158033	-1.063210	-8.386243	-39.575560	 9.989499	-2.635965	 4.993658	 6.788941	-5.165319	 0.784187	 3.516649	-5.225038	 0.466231	 0.424329	-0.000002	-3.783157	-0.089647	 4.697092	 4.836475	-0.198488	 89.782160	 78.203900	 179.999900	-11.411530	 12.501020	 112.305100	-35.050180	-0.172987	 1.078029	-26.295800	-35.627400	-22.230270	 6.112037	 4.509576	-0.364401	 4.968462	 1.518543	-9.347576	 5.168945	 0.703820	 2.021906
